<svg width="473" height="442" viewBox="0 0 473 442" fill="none" xmlns="http://www.w3.org/2000/svg">
<path fill-rule="evenodd" clip-rule="evenodd" d="M245.109 8.6329C277.637 2.37452 314.053 -6.6448 343.617 7.5776C373.375 21.8938 384.919 56.1194 401.07 83.6615C414.996 107.41 420.794 133.717 432.193 158.631C444.648 185.855 468.736 208.784 471.811 238.283C474.999 268.868 473.062 305.559 449.752 327.075C424.863 350.049 382.676 340.987 349.533 351.152C325.922 358.393 302.971 366.274 281.85 378.569C250.217 396.983 231.079 437.584 194.133 441.613C160.37 445.294 126.791 422.136 104.61 397.893C82.7903 374.045 90.7028 336.098 73.1063 309.336C54.8042 281.499 7.31908 272.183 0.811822 240.024C-5.52301 208.718 26.8377 182.288 41.5942 153.605C54.7738 127.988 61.988 98.8583 83.654 79.0042C105.009 59.4353 135.99 54.1086 163.034 42.3213C190.417 30.3863 215.545 14.321 245.109 8.6329Z" fill="#64D651"/>
<path fill-rule="evenodd" clip-rule="evenodd" d="M172.895 196.88C172.964 196.096 173 195.302 173 194.5C173 194.078 172.99 193.658 172.971 193.241L181.246 184.818H186.223L175.161 196.004L187.041 211H181.928L172.59 199.172C172.659 198.784 172.719 198.393 172.771 197.999C172.82 197.628 172.861 197.255 172.895 196.88ZM172.131 198.592L172.59 199.172C172.026 202.342 170.898 205.318 169.314 207.991V201.202L172.131 198.592ZM169.314 196.477V181.009C171.455 184.623 172.762 188.788 172.971 193.241L169.791 196.477H169.314ZM165.562 176.091H169.314V181.009C168.256 179.224 166.995 177.574 165.562 176.091ZM165.562 176.091H165.291V211H167.238C162.383 217.094 154.897 221 146.5 221C131.864 221 120 209.136 120 194.5C120 179.864 131.864 168 146.5 168C153.984 168 160.743 171.102 165.562 176.091ZM167.238 211C167.996 210.048 168.69 209.043 169.314 207.991V211H167.238ZM151.83 180.795C153.284 181.75 154.114 183.091 154.318 184.818H158.409C158.352 183.057 157.807 181.483 156.773 180.097C155.75 178.71 154.364 177.619 152.614 176.824C150.864 176.017 148.864 175.614 146.614 175.614C144.386 175.614 142.369 176.023 140.562 176.841C138.767 177.648 137.335 178.784 136.267 180.25C135.21 181.705 134.682 183.409 134.682 185.364C134.682 187.716 135.477 189.619 137.068 191.074C138.659 192.528 140.818 193.648 143.545 194.432L147.841 195.659C149.068 196 150.21 196.398 151.267 196.852C152.324 197.307 153.176 197.898 153.824 198.625C154.472 199.352 154.795 200.295 154.795 201.455C154.795 202.727 154.42 203.841 153.67 204.795C152.92 205.739 151.903 206.477 150.619 207.011C149.335 207.534 147.886 207.795 146.273 207.795C144.886 207.795 143.591 207.591 142.386 207.182C141.193 206.761 140.205 206.125 139.42 205.273C138.648 204.409 138.205 203.318 138.091 202H133.727C133.864 203.909 134.449 205.585 135.483 207.028C136.528 208.472 137.96 209.597 139.778 210.403C141.608 211.21 143.773 211.614 146.273 211.614C148.955 211.614 151.233 211.165 153.108 210.267C154.994 209.369 156.426 208.159 157.403 206.636C158.392 205.114 158.886 203.409 158.886 201.523C158.886 199.886 158.551 198.506 157.881 197.381C157.21 196.256 156.358 195.335 155.324 194.619C154.301 193.892 153.227 193.318 152.102 192.898C150.989 192.477 149.977 192.148 149.068 191.909L145.523 190.955C144.875 190.784 144.165 190.562 143.392 190.29C142.619 190.006 141.881 189.648 141.176 189.216C140.472 188.773 139.892 188.222 139.438 187.562C138.994 186.892 138.773 186.091 138.773 185.159C138.773 184.045 139.091 183.051 139.727 182.176C140.375 181.301 141.273 180.614 142.42 180.114C143.58 179.614 144.932 179.364 146.477 179.364C148.591 179.364 150.375 179.841 151.83 180.795ZM191.401 184.818V211H195.423V184.818H191.401ZM191.418 179.653C191.986 180.188 192.662 180.455 193.446 180.455C194.23 180.455 194.901 180.188 195.457 179.653C196.026 179.119 196.31 178.477 196.31 177.727C196.31 176.977 196.026 176.335 195.457 175.801C194.901 175.267 194.23 175 193.446 175C192.662 175 191.986 175.267 191.418 175.801C190.861 176.335 190.582 176.977 190.582 177.727C190.582 178.477 190.861 179.119 191.418 179.653ZM206.814 211V176.091H202.791V211H206.814ZM218.205 211V176.091H214.182V211H218.205ZM239.618 176.091V211H252.232C254.982 211 257.214 210.591 258.93 209.773C260.646 208.955 261.902 207.847 262.697 206.449C263.493 205.051 263.891 203.477 263.891 201.727C263.891 199.886 263.527 198.33 262.8 197.057C262.072 195.784 261.169 194.807 260.089 194.125C259.01 193.443 257.936 193.068 256.868 193V192.659C257.868 192.386 258.794 191.966 259.646 191.398C260.51 190.83 261.203 190.057 261.726 189.08C262.26 188.102 262.527 186.864 262.527 185.364C262.527 183.659 262.141 182.108 261.368 180.71C260.595 179.301 259.419 178.182 257.839 177.352C256.26 176.511 254.254 176.091 251.822 176.091H239.618ZM252.232 207.25H243.845V195.114H252.436C253.959 195.114 255.277 195.42 256.391 196.034C257.504 196.636 258.362 197.443 258.964 198.455C259.567 199.455 259.868 200.545 259.868 201.727C259.868 203.261 259.283 204.568 258.112 205.648C256.953 206.716 254.993 207.25 252.232 207.25ZM251.686 191.432H243.845V179.841H251.822C254.141 179.841 255.834 180.381 256.902 181.46C257.97 182.528 258.504 183.83 258.504 185.364C258.504 186.591 258.197 187.659 257.584 188.568C256.982 189.477 256.163 190.182 255.129 190.682C254.107 191.182 252.959 191.432 251.686 191.432ZM274.706 209.858C276.49 210.983 278.564 211.545 280.928 211.545C283.291 211.545 285.359 210.983 287.132 209.858C288.916 208.733 290.303 207.159 291.291 205.136C292.291 203.114 292.791 200.75 292.791 198.045C292.791 195.318 292.291 192.938 291.291 190.903C290.303 188.869 288.916 187.29 287.132 186.165C285.359 185.04 283.291 184.477 280.928 184.477C278.564 184.477 276.49 185.04 274.706 186.165C272.933 187.29 271.547 188.869 270.547 190.903C269.558 192.938 269.064 195.318 269.064 198.045C269.064 200.75 269.558 203.114 270.547 205.136C271.547 207.159 272.933 208.733 274.706 209.858ZM285.359 206.551C284.2 207.472 282.723 207.932 280.928 207.932C279.132 207.932 277.655 207.472 276.496 206.551C275.337 205.631 274.479 204.42 273.922 202.92C273.365 201.42 273.087 199.795 273.087 198.045C273.087 196.295 273.365 194.665 273.922 193.153C274.479 191.642 275.337 190.42 276.496 189.489C277.655 188.557 279.132 188.091 280.928 188.091C282.723 188.091 284.2 188.557 285.359 189.489C286.518 190.42 287.376 191.642 287.933 193.153C288.49 194.665 288.768 196.295 288.768 198.045C288.768 199.795 288.49 201.42 287.933 202.92C287.376 204.42 286.518 205.631 285.359 206.551ZM303.347 209.858C305.131 210.983 307.205 211.545 309.568 211.545C311.932 211.545 314 210.983 315.773 209.858C317.557 208.733 318.943 207.159 319.932 205.136C320.932 203.114 321.432 200.75 321.432 198.045C321.432 195.318 320.932 192.938 319.932 190.903C318.943 188.869 317.557 187.29 315.773 186.165C314 185.04 311.932 184.477 309.568 184.477C307.205 184.477 305.131 185.04 303.347 186.165C301.574 187.29 300.188 188.869 299.188 190.903C298.199 192.938 297.705 195.318 297.705 198.045C297.705 200.75 298.199 203.114 299.188 205.136C300.188 207.159 301.574 208.733 303.347 209.858ZM314 206.551C312.841 207.472 311.364 207.932 309.568 207.932C307.773 207.932 306.295 207.472 305.136 206.551C303.977 205.631 303.119 204.42 302.562 202.92C302.006 201.42 301.727 199.795 301.727 198.045C301.727 196.295 302.006 194.665 302.562 193.153C303.119 191.642 303.977 190.42 305.136 189.489C306.295 188.557 307.773 188.091 309.568 188.091C311.364 188.091 312.841 188.557 314 189.489C315.159 190.42 316.017 191.642 316.574 193.153C317.131 194.665 317.409 196.295 317.409 198.045C317.409 199.795 317.131 201.42 316.574 202.92C316.017 204.42 315.159 205.631 314 206.551ZM342.504 191.705L346.118 190.682C345.493 188.818 344.436 187.318 342.947 186.182C341.47 185.045 339.436 184.477 336.845 184.477C335.004 184.477 333.357 184.801 331.902 185.449C330.459 186.097 329.317 186.989 328.476 188.125C327.646 189.261 327.232 190.568 327.232 192.045C327.232 193.852 327.788 195.358 328.902 196.562C330.027 197.756 331.788 198.636 334.186 199.205L338.55 200.227C339.868 200.534 340.845 201 341.482 201.625C342.118 202.239 342.436 203 342.436 203.909C342.436 205.034 341.879 206 340.766 206.807C339.663 207.602 338.175 208 336.3 208C334.652 208 333.317 207.648 332.294 206.943C331.283 206.239 330.595 205.182 330.232 203.773L326.413 204.727C326.879 206.955 327.987 208.648 329.737 209.807C331.487 210.966 333.697 211.545 336.368 211.545C338.402 211.545 340.186 211.205 341.72 210.523C343.254 209.841 344.447 208.909 345.3 207.727C346.163 206.545 346.595 205.205 346.595 203.705C346.595 201.875 346.021 200.381 344.874 199.222C343.726 198.051 341.982 197.182 339.641 196.614L335.754 195.659C334.209 195.273 333.072 194.79 332.345 194.21C331.618 193.631 331.254 192.841 331.254 191.841C331.254 190.716 331.783 189.79 332.839 189.062C333.908 188.324 335.243 187.955 336.845 187.955C338.016 187.955 338.976 188.142 339.726 188.517C340.476 188.892 341.067 189.369 341.499 189.949C341.942 190.517 342.277 191.102 342.504 191.705ZM364.037 188.227V184.818H358.446V178.545H354.423V184.818H350.469V188.227H354.423V204.591C354.423 206.114 354.776 207.375 355.48 208.375C356.196 209.375 357.094 210.119 358.173 210.608C359.264 211.097 360.378 211.341 361.514 211.341C362.264 211.341 362.884 211.284 363.372 211.17C363.861 211.068 364.241 210.966 364.514 210.864L363.696 207.25L363.014 207.386C362.73 207.432 362.366 207.455 361.923 207.455C361.332 207.455 360.77 207.364 360.236 207.182C359.713 206.989 359.281 206.614 358.94 206.057C358.611 205.489 358.446 204.636 358.446 203.5V188.227H364.037Z" fill="white"/>
</svg>
